<svg width="734" height="166" viewBox="0 0 734 166" fill="none" xmlns="http://www.w3.org/2000/svg">
<path d="M367.8 41.7C339.3 41.7 318.8 60.3 318.8 88.2C318.8 116.1 341.9 134.7 370.4 134.7C387.6 134.7 402.8 127.9 412.2 116.4L392.5 105C387.3 110.7 379.4 114 370.5 114C358.1 114 347.6 107.5 343.7 97.2H416C416.6 94.2 416.9 91.2 416.9 88.2C416.9 60.3 396.4 41.7 367.8 41.7ZM343.4 79.1C346.6 68.8 355.5 62.3 367.8 62.3C380.1 62.3 389 68.8 392.2 79.1H343.4ZM337.6 13.3L266.1 137.2L194.6 13.3H221.4L266.1 90.7L310.8 13.3H337.6V13.3ZM95.9 0.399994L191.3 165.6H0.5L95.9 0.399994ZM520.6 88.2C520.6 103.7 530.7 114 546.4 114C557 114 565 109.2 569.1 101.3L589 112.7C580.8 126.4 565.4 134.6 546.5 134.6C518 134.6 497.5 116 497.5 88.1C497.5 60.2 518 41.6 546.5 41.6C565.4 41.6 580.8 49.8 589 63.5L569.2 74.9C565.1 67 557.1 62.2 546.5 62.2C530.8 62.4 520.6 72.7 520.6 88.2ZM733.5 13.3V132H710.3V13.3H733.5ZM645.8 41.7C617.3 41.7 596.8 60.3 596.8 88.2C596.8 116.1 619.9 134.7 648.4 134.7C665.6 134.7 680.8 127.9 690.2 116.4L670.5 105C665.3 110.7 657.4 114 648.5 114C636.1 114 625.6 107.5 621.7 97.2H694C694.6 94.2 694.9 91.2 694.9 88.2C694.8 60.3 674.3 41.7 645.8 41.7ZM621.4 79.1C624.6 68.8 633.4 62.3 645.8 62.3C658.2 62.3 667 68.8 670.2 79.1H621.4ZM489.7 44.3V69.3C487 68.5 484.2 68.1 481.4 68C466.4 68 455.6 78.3 455.6 93.8V132H432.4V44.3H455.6V68C455.6 54.9 470.8 44.3 489.7 44.3Z" fill="#F04A7B"/>
</svg>
